<svg xmlns="http://www.w3.org/2000/svg" viewBox="0 0 512 512">
  <defs>
    <!-- Background Gradient: Deep rich Indigo/Violet to Dark Purple/Pink -->
    <linearGradient id="bgGrad" x1="0%" y1="0%" x2="100%" y2="100%">
      <stop offset="0%" stop-color="#4F46E5"/>
      <stop offset="50%" stop-color="#7C3AED"/>
      <stop offset="100%" stop-color="#EC4899"/>
    </linearGradient>
    
    <!-- Accent Gradient for the bicycle wheels -->
    <linearGradient id="accentGrad" x1="0%" y1="100%" x2="100%" y2="0%">
      <stop offset="0%" stop-color="#06B6D4"/>
      <stop offset="100%" stop-color="#10B981"/>
    </linearGradient>

    <!-- Glow Filter -->
    <filter id="glow" x="-20%" y="-20%" width="140%" height="140%">
      <feGaussianBlur stdDeviation="8" result="blur"/>
      <feComposite in="SourceGraphic" in2="blur" operator="over"/>
    </filter>
  </defs>

  <!-- Background Card -->
  <rect width="512" height="512" rx="128" fill="url(#bgGrad)"/>
  
  <!-- Subtle background grid/pattern for high-tech premium feel -->
  <circle cx="256" cy="256" r="220" fill="none" stroke="white" stroke-opacity="0.03" stroke-width="2"/>
  <circle cx="256" cy="256" r="180" fill="none" stroke="white" stroke-opacity="0.02" stroke-width="1.5"/>

  <!-- Logo Emblem: Geometric Bicycle -->
  <g transform="translate(0, 10)">
    <!-- Delivery Backpack / Box -->
    <rect x="110" y="90" width="75" height="75" rx="18" fill="white" filter="url(#glow)"/>
    <rect x="130" y="110" width="35" height="35" rx="6" fill="url(#bgGrad)"/>

    <!-- Frame -->
    <polyline points="160,240 240,240 215,145 160,240" fill="none" stroke="white" stroke-width="14" stroke-linecap="round" stroke-linejoin="round"/>
    <polyline points="240,240 315,130 215,145" fill="none" stroke="white" stroke-width="14" stroke-linecap="round" stroke-linejoin="round"/>
    <line x1="315" y1="130" x2="352" y2="240" stroke="white" stroke-width="14" stroke-linecap="round" stroke-linejoin="round"/>
    
    <!-- Seat post & Seat -->
    <line x1="215" y1="145" x2="215" y2="130" stroke="white" stroke-width="14" stroke-linecap="round"/>
    <line x1="190" y1="130" x2="235" y2="130" stroke="white" stroke-width="14" stroke-linecap="round"/>

    <!-- Stem & Handlebars -->
    <line x1="315" y1="130" x2="315" y2="100" stroke="white" stroke-width="14" stroke-linecap="round"/>
    <line x1="315" y1="100" x2="340" y2="100" stroke="white" stroke-width="14" stroke-linecap="round" stroke-linejoin="round"/>

    <!-- Wheels (Premium dual ring styling) -->
    <!-- Rear Wheel -->
    <circle cx="160" cy="240" r="50" fill="none" stroke="url(#accentGrad)" stroke-width="16" filter="url(#glow)"/>
    <circle cx="160" cy="240" r="25" fill="none" stroke="white" stroke-opacity="0.15" stroke-width="4"/>
    <circle cx="160" cy="240" r="8" fill="white"/>

    <!-- Front Wheel -->
    <circle cx="352" cy="240" r="50" fill="none" stroke="url(#accentGrad)" stroke-width="16" filter="url(#glow)"/>
    <circle cx="352" cy="240" r="25" fill="none" stroke="white" stroke-opacity="0.15" stroke-width="4"/>
    <circle cx="352" cy="240" r="8" fill="white"/>
  </g>

  <!-- Title / Monogram details -->
  <text x="256" y="425" font-family="-apple-system, BlinkMacSystemFont, 'Segoe UI', Roboto, 'Helvetica Neue', Arial, sans-serif" font-weight="900" font-size="68" fill="white" letter-spacing="4" text-anchor="middle" filter="url(#glow)">MyDeli</text>
</svg>